<svg width="28" height="28" viewBox="0 0 28 28" fill="none" xmlns="http://www.w3.org/2000/svg">
<path d="M11.7106 6.20228L12.4678 7.55903C13.1511 8.78343 12.8768 10.3896 11.8006 11.4658C11.8006 11.4658 10.4953 12.7713 12.862 15.1382C15.228 17.5042 16.5343 16.1996 16.5343 16.1996C17.6106 15.1233 19.2167 14.8491 20.4411 15.5324L21.7978 16.2895C23.6468 17.3213 23.8651 19.9141 22.24 21.5393C21.2635 22.5158 20.0672 23.2757 18.7448 23.3257C16.5187 23.4102 12.7381 22.8468 8.94573 19.0544C5.1534 15.2621 4.59 11.4815 4.67439 9.25535C4.72452 7.93295 5.48435 6.73668 6.46086 5.76018C8.08597 4.13507 10.6788 4.35343 11.7106 6.20228Z" stroke="#1B1B1B" stroke-width="2" stroke-linecap="round"/>
</svg>
