<svg width="52" height="52" viewBox="0 0 52 52" fill="none" xmlns="http://www.w3.org/2000/svg">
<rect width="51.5211" height="51.5211" rx="25.7606" fill="white"/>
<path fill-rule="evenodd" clip-rule="evenodd" d="M35.3014 34.2401L30.6073 29.547C33.4336 26.1538 33.0912 21.1377 29.8299 18.1601C26.5686 15.1825 21.5421 15.2967 18.4194 18.4194C15.2967 21.5421 15.1825 26.5686 18.1601 29.8299C21.1377 33.0912 26.1538 33.4336 29.547 30.6073L34.2401 35.3014C34.5332 35.5944 35.0083 35.5944 35.3014 35.3014C35.5944 35.0083 35.5944 34.5332 35.3014 34.2401ZM17.5207 24.2707C17.5207 20.5428 20.5428 17.5207 24.2707 17.5207C27.9987 17.5207 31.0207 20.5428 31.0207 24.2707C31.0207 27.9987 27.9987 31.0207 24.2707 31.0207C20.5445 31.0166 17.5249 27.9969 17.5207 24.2707Z" fill="#AD8330"/>
</svg>
