<svg width="52" height="52" viewBox="0 0 52 52" fill="none" xmlns="http://www.w3.org/2000/svg">
<rect width="51.5211" height="51.5211" rx="25.7606" fill="white"/>
<path fill-rule="evenodd" clip-rule="evenodd" d="M25.1322 32.6189C25.0644 32.8904 24.8204 33.081 24.5405 33.081C24.4891 33.0812 24.4379 33.0751 24.388 33.0627L21.9478 32.4527C21.8799 32.4356 21.8154 32.407 21.7572 32.368L19.9271 31.148C19.6468 30.961 19.5712 30.5822 19.7582 30.3019C19.9452 30.0216 20.324 29.946 20.6042 30.133L22.3459 31.2944L24.6839 31.8792C24.8416 31.9175 24.9776 32.017 25.0618 32.1559C25.146 32.2947 25.1713 32.4613 25.1322 32.6189V32.6189ZM35.2504 25.2634C35.1493 25.5705 34.9297 25.8244 34.6404 25.9687L32.8347 26.8716L28.6346 31.0725C28.483 31.2239 28.263 31.2847 28.0551 31.2326L23.1748 30.0125C23.1006 29.9939 23.0305 29.9616 22.9681 29.9172L18.7345 26.8945L16.883 25.9687C16.2805 25.6675 16.0361 24.935 16.337 24.3323L18.232 20.5432V20.5432C18.5332 19.9407 19.2657 19.6963 19.8684 19.9973L21.5506 20.8361L25.5921 19.6816C25.7017 19.6502 25.8179 19.6502 25.9276 19.6816L29.9691 20.8361L31.6512 19.9973C32.2539 19.6963 32.9864 19.9407 33.2877 20.5432L35.1826 24.3323C35.3286 24.6212 35.353 24.9564 35.2504 25.2634V25.2634ZM31.729 26.2501L29.6541 22.1004H27.2277L23.9305 25.303C24.8958 25.9199 26.4095 26.09 27.7676 24.7212C27.9873 24.4998 28.3385 24.4798 28.582 24.6747L31.2059 26.777L31.729 26.2501ZM17.4282 24.8775L18.7772 25.5524L20.6721 21.7633L19.3232 21.0885L17.4282 24.8775ZM30.3358 27.641L28.2228 25.9489C26.7328 27.169 24.8409 27.3299 23.2732 26.3302C22.9608 26.1315 22.7555 25.8017 22.7152 25.4337C22.6748 25.0656 22.8038 24.6992 23.0657 24.4376C23.0676 24.4353 23.0696 24.4333 23.0718 24.4315L26.4926 21.1136L25.7606 20.9047L21.9158 22.0035L19.8287 26.1769L23.5805 28.8573L28.0139 29.9652L30.3358 27.641ZM34.0906 24.8775L32.198 21.0885L30.849 21.7633L32.744 25.5524L34.0906 24.8775Z" fill="#AD8330"/>
</svg>
