<svg width="29" height="28" viewBox="0 0 29 28" fill="none" xmlns="http://www.w3.org/2000/svg">
<path d="M21.6252 4.375H7.04183C5.75316 4.375 4.7085 5.41967 4.7085 6.70833V21.2917C4.7085 22.5803 5.75316 23.625 7.04183 23.625H21.6252C22.9138 23.625 23.9585 22.5803 23.9585 21.2917V6.70833C23.9585 5.41967 22.9138 4.375 21.6252 4.375Z" stroke="black" stroke-width="2"/>
<path d="M9.9585 12.5417V18.9584" stroke="black" stroke-width="2" stroke-linecap="round" stroke-linejoin="round"/>
<path d="M9.95841 10.5001C10.6027 10.5001 11.1251 9.97775 11.1251 9.33341C11.1251 8.68908 10.6027 8.16675 9.95841 8.16675C9.31408 8.16675 8.79175 8.68908 8.79175 9.33341C8.79175 9.97775 9.31408 10.5001 9.95841 10.5001Z" fill="black"/>
<path d="M18.7085 18.9584V15.1667C18.7085 13.717 17.5332 12.5417 16.0835 12.5417C14.6338 12.5417 13.4585 13.717 13.4585 15.1667V18.9584" stroke="black" stroke-width="2" stroke-linecap="round"/>
</svg>
