<svg width="56" height="57" viewBox="0 0 56 57" fill="none" xmlns="http://www.w3.org/2000/svg">
<rect y="0.5" width="56" height="56" rx="6" fill="#AD8330"/>
<path d="M27.996 12.5C21.5278 12.5 16.2625 17.7653 16.2625 24.2335C16.2624 35.6147 27.3345 44.2671 27.3345 44.2671C27.5235 44.4179 27.7581 44.5 27.9999 44.5C28.2417 44.5 28.4763 44.4179 28.6653 44.2671C28.6653 44.2671 39.7374 35.6147 39.7373 24.2335C39.7373 17.7653 34.4641 12.5 27.996 12.5ZM27.996 14.6341C33.3111 14.6341 37.6032 18.9184 37.6033 24.2335C37.6033 33.5442 29.1723 40.9004 28.0038 41.8968C26.841 40.9054 18.3965 33.5479 18.3965 24.2335C18.3965 18.9184 22.6808 14.6341 27.996 14.6341Z" fill="white"/>
<path d="M27.9961 18.9021C25.0629 18.9021 22.6648 21.3002 22.6648 24.2334C22.6648 27.1666 25.0629 29.5725 27.9961 29.5725C30.9293 29.5725 33.3352 27.1666 33.3352 24.2334C33.3352 21.3002 30.9292 18.9021 27.9961 18.9021ZM27.9961 21.0362C29.7762 21.0362 31.2011 22.4532 31.2011 24.2334C31.2011 26.0135 29.7762 27.4384 27.9961 27.4384C26.2159 27.4384 24.7989 26.0135 24.7989 24.2334C24.7989 22.4532 26.2159 21.0362 27.9961 21.0362Z" fill="white"/>
</svg>
