<svg width="52" height="52" viewBox="0 0 52 52" fill="none" xmlns="http://www.w3.org/2000/svg">
<rect width="51.5211" height="51.5211" rx="25.7606" fill="white"/>
<path fill-rule="evenodd" clip-rule="evenodd" d="M30.0458 22.9769C30.1868 23.1178 30.266 23.3089 30.266 23.5081C30.266 23.7074 30.1868 23.8985 30.0458 24.0393L24.7901 29.295C24.6493 29.436 24.4582 29.5152 24.2589 29.5152C24.0597 29.5152 23.8686 29.436 23.7277 29.295L21.4753 27.0426C21.1819 26.7492 21.1819 26.2736 21.4753 25.9802C21.7687 25.6868 22.2443 25.6868 22.5377 25.9802L24.2589 27.7024L28.9834 22.9769C29.1243 22.8359 29.3154 22.7567 29.5146 22.7567C29.7139 22.7567 29.905 22.8359 30.0458 22.9769ZM35.5211 25.7606C35.5211 31.1512 31.1512 35.5211 25.7606 35.5211C20.37 35.5211 16 31.1512 16 25.7606C16 20.37 20.37 16 25.7606 16C31.1488 16.0057 35.5155 20.3723 35.5211 25.7606ZM34.0195 25.7606C34.0195 21.1993 30.3219 17.5016 25.7606 17.5016C21.1993 17.5016 17.5016 21.1993 17.5016 25.7606C17.5016 30.3219 21.1993 34.0195 25.7606 34.0195C30.3197 34.0143 34.0143 30.3197 34.0195 25.7606Z" fill="#A16A59"/>
</svg>
