<svg width="52" height="53" viewBox="0 0 52 53" fill="none" xmlns="http://www.w3.org/2000/svg">
<rect y="0.761902" width="51.5211" height="51.5211" rx="25.7606" fill="white"/>
<path fill-rule="evenodd" clip-rule="evenodd" d="M24.9408 28.804C26.6196 27.6864 27.3685 25.6015 26.7848 23.6711C26.201 21.7407 24.4221 20.4203 22.4054 20.4203C20.3887 20.4203 18.6098 21.7407 18.026 23.6711C17.4422 25.6015 18.1912 27.6864 19.8699 28.804C18.391 29.3491 17.1279 30.3578 16.2692 31.6796C16.1464 31.8621 16.1313 32.0967 16.2299 32.2934C16.3285 32.4901 16.5253 32.6185 16.7451 32.6294C16.9648 32.6403 17.1734 32.532 17.291 32.346C18.4164 30.6152 20.3408 29.5709 22.4054 29.5709C24.4699 29.5709 26.3944 30.6152 27.5198 32.346C27.7059 32.6227 28.0798 32.6986 28.3592 32.5164C28.6385 32.3342 28.7198 31.9615 28.5416 31.6796C27.6829 30.3578 26.4198 29.3491 24.9408 28.804V28.804ZM19.0502 24.9974C19.0502 23.1444 20.5524 21.6422 22.4054 21.6422C24.2584 21.6422 25.7606 23.1444 25.7606 24.9974C25.7606 26.8504 24.2584 28.3526 22.4054 28.3526C20.5532 28.3505 19.0523 26.8495 19.0502 24.9974V24.9974ZM35.0743 32.5237C34.7921 32.7077 34.4142 32.6282 34.2302 32.346C33.1061 30.614 31.1806 29.5699 29.1158 29.5727C28.7789 29.5727 28.5057 29.2995 28.5057 28.9626C28.5057 28.6257 28.7789 28.3526 29.1158 28.3526C30.4671 28.3513 31.6857 27.5395 32.2075 26.2931C32.7294 25.0466 32.4525 23.6088 31.5052 22.6452C30.5579 21.6816 29.1249 21.3803 27.8698 21.8809C27.666 21.9689 27.4306 21.9394 27.2549 21.8038C27.0792 21.6681 26.9911 21.4478 27.0247 21.2284C27.0584 21.009 27.2086 20.8252 27.4168 20.7485C29.5923 19.8809 32.0718 20.7963 33.1615 22.8694C34.2513 24.9426 33.5994 27.504 31.6512 28.804C33.1302 29.3491 34.3933 30.3578 35.252 31.6796C35.436 31.9617 35.3564 32.3396 35.0743 32.5237V32.5237Z" fill="#AD8330"/>
</svg>
