<svg width="52" height="53" viewBox="0 0 52 53" fill="none" xmlns="http://www.w3.org/2000/svg">
<rect y="0.761902" width="51.5211" height="51.5211" rx="25.7606" fill="white"/>
<path fill-rule="evenodd" clip-rule="evenodd" d="M25.7606 18.592C21.3807 18.592 17.8301 22.1426 17.8301 26.5225C17.8301 30.9024 21.3807 34.4529 25.7606 34.4529C30.1404 34.4529 33.691 30.9024 33.691 26.5225C33.6864 22.1445 30.1385 18.5966 25.7606 18.592V18.592ZM25.7606 33.2329C22.0545 33.2329 19.0502 30.2285 19.0502 26.5225C19.0502 22.8164 22.0545 19.8121 25.7606 19.8121C29.4666 19.8121 32.471 22.8164 32.471 26.5225C32.4668 30.2268 29.4649 33.2287 25.7606 33.2329V33.2329ZM30.6409 26.5225C30.6409 26.8594 30.3677 27.1325 30.0308 27.1325H25.7606C25.4237 27.1325 25.1505 26.8594 25.1505 26.5225V22.2522C25.1505 21.9153 25.4237 21.6422 25.7606 21.6422C26.0975 21.6422 26.3706 21.9153 26.3706 22.2522V25.9124H30.0308C30.3677 25.9124 30.6409 26.1856 30.6409 26.5225V26.5225Z" fill="#A16A59"/>
</svg>
