<svg width="52" height="53" viewBox="0 0 52 53" fill="none" xmlns="http://www.w3.org/2000/svg">
<rect y="0.761902" width="51.5211" height="51.5211" rx="25.7606" fill="white"/>
<path fill-rule="evenodd" clip-rule="evenodd" d="M25.7606 21.0999C23.9637 21.0999 22.507 23.5277 22.507 26.5225C22.507 29.5173 23.9637 31.945 25.7606 31.945C27.5574 31.945 29.0141 29.5173 29.0141 26.5225C29.0141 23.5277 27.5574 21.0999 25.7606 21.0999ZM25.7606 29.776C24.6825 29.776 23.8085 28.3193 23.8085 26.5225C23.8085 24.7256 24.6825 23.269 25.7606 23.269C26.8387 23.269 27.7127 24.7256 27.7127 26.5225C27.7127 28.3193 26.8387 29.776 25.7606 29.776ZM34.8704 16.7619H16.6507C16.2913 16.7619 16 17.2475 16 17.8464V35.1985C16 35.7975 16.2913 36.283 16.6507 36.283H34.8704C35.2298 36.283 35.5211 35.7975 35.5211 35.1985V17.8464C35.5211 17.2475 35.2298 16.7619 34.8704 16.7619ZM31.1004 34.114H20.4207C19.9768 31.6119 18.8027 29.655 17.3014 28.9152V24.1298C18.8027 23.39 19.9768 21.433 20.4207 18.9309H31.1004C31.5443 21.433 32.7185 23.39 34.2197 24.1298V28.9152C32.7185 29.655 31.5443 31.6119 31.1004 34.114ZM34.2197 21.8279C33.4392 21.2686 32.8171 20.2317 32.4815 18.9309H34.2197V21.8279ZM19.0396 18.9309C18.704 20.2317 18.0819 21.2686 17.3014 21.8279V18.9309H19.0396ZM17.3014 31.217C18.0819 31.7764 18.704 32.8132 19.0396 34.114H17.3014V31.217ZM32.4815 34.114C32.8171 32.8132 33.4392 31.7764 34.2197 31.217V34.114H32.4815Z" fill="#AD8330"/>
</svg>
